<?xml version="1.0" encoding="utf-8" standalone="no"?>
<!DOCTYPE svg PUBLIC "-//W3C//DTD SVG 1.1//EN"
  "http://www.w3.org/Graphics/SVG/1.1/DTD/svg11.dtd">
<!-- Created with matplotlib (https://matplotlib.org/) -->
<svg height="720pt" version="1.1" viewBox="0 0 1440 720" width="1440pt" xmlns="http://www.w3.org/2000/svg" xmlns:xlink="http://www.w3.org/1999/xlink">
 <defs>
  <style type="text/css">
*{stroke-linecap:butt;stroke-linejoin:round;}
  </style>
 </defs>
 <g id="figure_1">
  <g id="patch_1">
   <path d="M 0 720 
L 1440 720 
L 1440 0 
L 0 0 
z
" style="fill:#ffffff;"/>
  </g>
  <g id="axes_1">
   <g id="LineCollection_1">
    <path clip-path="url(#pc0fd793f59)" d="M 444.326508 369.73278 
L 572.175502 391.089319 
" style="fill:none;stroke:#000000;"/>
    <path clip-path="url(#pc0fd793f59)" d="M 444.326508 369.73278 
L 323.306767 445.079446 
" style="fill:none;stroke:#000000;"/>
    <path clip-path="url(#pc0fd793f59)" d="M 444.326508 369.73278 
L 510.874519 273.8529 
" style="fill:none;stroke:#000000;"/>
    <path clip-path="url(#pc0fd793f59)" d="M 444.326508 369.73278 
L 505.505781 477.001983 
" style="fill:none;stroke:#000000;"/>
    <path clip-path="url(#pc0fd793f59)" d="M 444.326508 369.73278 
L 383.174282 304.977061 
" style="fill:none;stroke:#000000;"/>
    <path clip-path="url(#pc0fd793f59)" d="M 444.326508 369.73278 
L 505.08656 423.460941 
" style="fill:none;stroke:#000000;"/>
    <path clip-path="url(#pc0fd793f59)" d="M 444.326508 369.73278 
L 525.952965 376.294427 
" style="fill:none;stroke:#000000;"/>
    <path clip-path="url(#pc0fd793f59)" d="M 444.326508 369.73278 
L 442.284495 443.083508 
" style="fill:none;stroke:#000000;"/>
    <path clip-path="url(#pc0fd793f59)" d="M 444.326508 369.73278 
L 556.637264 291.966039 
" style="fill:none;stroke:#000000;"/>
    <path clip-path="url(#pc0fd793f59)" d="M 444.326508 369.73278 
L 367.230347 368.59759 
" style="fill:none;stroke:#000000;"/>
    <path clip-path="url(#pc0fd793f59)" d="M 444.326508 369.73278 
L 328.24276 335.04088 
" style="fill:none;stroke:#000000;"/>
    <path clip-path="url(#pc0fd793f59)" d="M 444.326508 369.73278 
L 553.175307 444.730157 
" style="fill:none;stroke:#000000;"/>
    <path clip-path="url(#pc0fd793f59)" d="M 444.326508 369.73278 
L 570.39043 347.29095 
" style="fill:none;stroke:#000000;"/>
    <path clip-path="url(#pc0fd793f59)" d="M 444.326508 369.73278 
L 512.564928 322.416571 
" style="fill:none;stroke:#000000;"/>
    <path clip-path="url(#pc0fd793f59)" d="M 444.326508 369.73278 
L 463.475459 478.586259 
" style="fill:none;stroke:#000000;"/>
    <path clip-path="url(#pc0fd793f59)" d="M 444.326508 369.73278 
L 380.18564 425.045217 
" style="fill:none;stroke:#000000;"/>
    <path clip-path="url(#pc0fd793f59)" d="M 444.326508 369.73278 
L 335.017918 297.404971 
" style="fill:none;stroke:#000000;"/>
    <path clip-path="url(#pc0fd793f59)" d="M 444.326508 369.73278 
L 425.718489 255.62749 
" style="fill:none;stroke:#000000;"/>
    <path clip-path="url(#pc0fd793f59)" d="M 444.326508 369.73278 
L 327.553073 387.746122 
" style="fill:none;stroke:#000000;"/>
    <path clip-path="url(#pc0fd793f59)" d="M 444.326508 369.73278 
L 407.421505 485.310075 
" style="fill:none;stroke:#000000;"/>
    <path clip-path="url(#pc0fd793f59)" d="M 444.326508 369.73278 
L 452.60275 294.860149 
" style="fill:none;stroke:#000000;"/>
    <path clip-path="url(#pc0fd793f59)" d="M 444.326508 369.73278 
L 458.661174 250.874662 
" style="fill:none;stroke:#000000;"/>
    <path clip-path="url(#pc0fd793f59)" d="M 444.326508 369.73278 
L 371.733596 264.596737 
" style="fill:none;stroke:#000000;"/>
    <path clip-path="url(#pc0fd793f59)" d="M 323.306767 445.079446 
L 203.057851 392.099762 
" style="fill:none;stroke:#000000;"/>
    <path clip-path="url(#pc0fd793f59)" d="M 323.306767 445.079446 
L 327.553073 387.746122 
" style="fill:none;stroke:#000000;"/>
    <path clip-path="url(#pc0fd793f59)" d="M 323.306767 445.079446 
L 256.892636 528.35373 
" style="fill:none;stroke:#000000;"/>
    <path clip-path="url(#pc0fd793f59)" d="M 323.306767 445.079446 
L 391.977931 545.554974 
" style="fill:none;stroke:#000000;"/>
    <path clip-path="url(#pc0fd793f59)" d="M 323.306767 445.079446 
L 212.946066 464.452521 
" style="fill:none;stroke:#000000;"/>
    <path clip-path="url(#pc0fd793f59)" d="M 510.874519 273.8529 
L 525.952965 376.294427 
" style="fill:none;stroke:#000000;"/>
    <path clip-path="url(#pc0fd793f59)" d="M 510.874519 273.8529 
L 556.637264 291.966039 
" style="fill:none;stroke:#000000;"/>
    <path clip-path="url(#pc0fd793f59)" d="M 510.874519 273.8529 
L 425.718489 255.62749 
" style="fill:none;stroke:#000000;"/>
    <path clip-path="url(#pc0fd793f59)" d="M 510.874519 273.8529 
L 583.900176 196.672466 
" style="fill:none;stroke:#000000;"/>
    <path clip-path="url(#pc0fd793f59)" d="M 510.874519 273.8529 
L 452.60275 294.860149 
" style="fill:none;stroke:#000000;"/>
    <path clip-path="url(#pc0fd793f59)" d="M 510.874519 273.8529 
L 458.661174 250.874662 
" style="fill:none;stroke:#000000;"/>
    <path clip-path="url(#pc0fd793f59)" d="M 505.505781 477.001983 
L 525.952965 376.294427 
" style="fill:none;stroke:#000000;"/>
    <path clip-path="url(#pc0fd793f59)" d="M 505.505781 477.001983 
L 442.284495 443.083508 
" style="fill:none;stroke:#000000;"/>
    <path clip-path="url(#pc0fd793f59)" d="M 505.505781 477.001983 
L 553.175307 444.730157 
" style="fill:none;stroke:#000000;"/>
    <path clip-path="url(#pc0fd793f59)" d="M 505.505781 477.001983 
L 463.475459 478.586259 
" style="fill:none;stroke:#000000;"/>
    <path clip-path="url(#pc0fd793f59)" d="M 505.505781 477.001983 
L 391.977931 545.554974 
" style="fill:none;stroke:#000000;"/>
    <path clip-path="url(#pc0fd793f59)" d="M 505.505781 477.001983 
L 570.079395 565.665299 
" style="fill:none;stroke:#000000;"/>
    <path clip-path="url(#pc0fd793f59)" d="M 505.08656 423.460941 
L 525.952965 376.294427 
" style="fill:none;stroke:#000000;"/>
    <path clip-path="url(#pc0fd793f59)" d="M 525.952965 376.294427 
L 512.564928 322.416571 
" style="fill:none;stroke:#000000;"/>
    <path clip-path="url(#pc0fd793f59)" d="M 556.637264 291.966039 
L 583.900176 196.672466 
" style="fill:none;stroke:#000000;"/>
    <path clip-path="url(#pc0fd793f59)" d="M 553.175307 444.730157 
L 463.475459 478.586259 
" style="fill:none;stroke:#000000;"/>
    <path clip-path="url(#pc0fd793f59)" d="M 553.175307 444.730157 
L 664.214876 480.844164 
" style="fill:none;stroke:#000000;"/>
    <path clip-path="url(#pc0fd793f59)" d="M 463.475459 478.586259 
L 391.977931 545.554974 
" style="fill:none;stroke:#000000;"/>
    <path clip-path="url(#pc0fd793f59)" d="M 583.900176 196.672466 
L 627.593861 111.109091 
" style="fill:none;stroke:#000000;"/>
    <path clip-path="url(#pc0fd793f59)" d="M 407.421505 485.310075 
L 412.235789 605.290909 
" style="fill:none;stroke:#000000;"/>
   </g>
   <g id="PathCollection_1">
    <defs>
     <path d="M 0 13.228757 
C 3.508307 13.228757 6.873396 11.834891 9.354143 9.354143 
C 11.834891 6.873396 13.228757 3.508307 13.228757 0 
C 13.228757 -3.508307 11.834891 -6.873396 9.354143 -9.354143 
C 6.873396 -11.834891 3.508307 -13.228757 0 -13.228757 
C -3.508307 -13.228757 -6.873396 -11.834891 -9.354143 -9.354143 
C -11.834891 -6.873396 -13.228757 -3.508307 -13.228757 0 
C -13.228757 3.508307 -11.834891 6.873396 -9.354143 9.354143 
C -6.873396 11.834891 -3.508307 13.228757 0 13.228757 
z
" id="mdaf219a9e3" style="stroke:#000000;stroke-width:3;"/>
    </defs>
    <g clip-path="url(#pc0fd793f59)">
     <use style="fill:#7fff00;stroke:#000000;stroke-width:3;" x="444.326508" xlink:href="#mdaf219a9e3" y="369.73278"/>
     <use style="fill:#7fff00;stroke:#000000;stroke-width:3;" x="572.175502" xlink:href="#mdaf219a9e3" y="391.089319"/>
     <use style="fill:#7fff00;stroke:#000000;stroke-width:3;" x="323.306767" xlink:href="#mdaf219a9e3" y="445.079446"/>
     <use style="fill:#7fff00;stroke:#000000;stroke-width:3;" x="510.874519" xlink:href="#mdaf219a9e3" y="273.8529"/>
     <use style="fill:#7fff00;stroke:#000000;stroke-width:3;" x="505.505781" xlink:href="#mdaf219a9e3" y="477.001983"/>
     <use style="fill:#7fff00;stroke:#000000;stroke-width:3;" x="383.174282" xlink:href="#mdaf219a9e3" y="304.977061"/>
     <use style="fill:#7fff00;stroke:#000000;stroke-width:3;" x="505.08656" xlink:href="#mdaf219a9e3" y="423.460941"/>
     <use style="fill:#7fff00;stroke:#000000;stroke-width:3;" x="525.952965" xlink:href="#mdaf219a9e3" y="376.294427"/>
     <use style="fill:#7fff00;stroke:#000000;stroke-width:3;" x="442.284495" xlink:href="#mdaf219a9e3" y="443.083508"/>
     <use style="fill:#7fff00;stroke:#000000;stroke-width:3;" x="556.637264" xlink:href="#mdaf219a9e3" y="291.966039"/>
     <use style="fill:#7fff00;stroke:#000000;stroke-width:3;" x="367.230347" xlink:href="#mdaf219a9e3" y="368.59759"/>
     <use style="fill:#7fff00;stroke:#000000;stroke-width:3;" x="203.057851" xlink:href="#mdaf219a9e3" y="392.099762"/>
     <use style="fill:#7fff00;stroke:#000000;stroke-width:3;" x="328.24276" xlink:href="#mdaf219a9e3" y="335.04088"/>
     <use style="fill:#7fff00;stroke:#000000;stroke-width:3;" x="553.175307" xlink:href="#mdaf219a9e3" y="444.730157"/>
     <use style="fill:#7fff00;stroke:#000000;stroke-width:3;" x="570.39043" xlink:href="#mdaf219a9e3" y="347.29095"/>
     <use style="fill:#7fff00;stroke:#000000;stroke-width:3;" x="512.564928" xlink:href="#mdaf219a9e3" y="322.416571"/>
     <use style="fill:#7fff00;stroke:#000000;stroke-width:3;" x="463.475459" xlink:href="#mdaf219a9e3" y="478.586259"/>
     <use style="fill:#7fff00;stroke:#000000;stroke-width:3;" x="664.214876" xlink:href="#mdaf219a9e3" y="480.844164"/>
     <use style="fill:#7fff00;stroke:#000000;stroke-width:3;" x="380.18564" xlink:href="#mdaf219a9e3" y="425.045217"/>
     <use style="fill:#7fff00;stroke:#000000;stroke-width:3;" x="335.017918" xlink:href="#mdaf219a9e3" y="297.404971"/>
     <use style="fill:#7fff00;stroke:#000000;stroke-width:3;" x="425.718489" xlink:href="#mdaf219a9e3" y="255.62749"/>
     <use style="fill:#7fff00;stroke:#000000;stroke-width:3;" x="327.553073" xlink:href="#mdaf219a9e3" y="387.746122"/>
     <use style="fill:#7fff00;stroke:#000000;stroke-width:3;" x="583.900176" xlink:href="#mdaf219a9e3" y="196.672466"/>
     <use style="fill:#7fff00;stroke:#000000;stroke-width:3;" x="407.421505" xlink:href="#mdaf219a9e3" y="485.310075"/>
     <use style="fill:#7fff00;stroke:#000000;stroke-width:3;" x="412.235789" xlink:href="#mdaf219a9e3" y="605.290909"/>
     <use style="fill:#7fff00;stroke:#000000;stroke-width:3;" x="627.593861" xlink:href="#mdaf219a9e3" y="111.109091"/>
     <use style="fill:#7fff00;stroke:#000000;stroke-width:3;" x="256.892636" xlink:href="#mdaf219a9e3" y="528.35373"/>
     <use style="fill:#7fff00;stroke:#000000;stroke-width:3;" x="391.977931" xlink:href="#mdaf219a9e3" y="545.554974"/>
     <use style="fill:#7fff00;stroke:#000000;stroke-width:3;" x="570.079395" xlink:href="#mdaf219a9e3" y="565.665299"/>
     <use style="fill:#7fff00;stroke:#000000;stroke-width:3;" x="212.946066" xlink:href="#mdaf219a9e3" y="464.452521"/>
     <use style="fill:#7fff00;stroke:#000000;stroke-width:3;" x="452.60275" xlink:href="#mdaf219a9e3" y="294.860149"/>
     <use style="fill:#7fff00;stroke:#000000;stroke-width:3;" x="458.661174" xlink:href="#mdaf219a9e3" y="250.874662"/>
     <use style="fill:#7fff00;stroke:#000000;stroke-width:3;" x="371.733596" xlink:href="#mdaf219a9e3" y="264.596737"/>
    </g>
   </g>
   <g id="text_1">
    <g clip-path="url(#pc0fd793f59)">
     <!-- n1 -->
     <defs>
      <path d="M 54.890625 33.015625 
L 54.890625 0 
L 45.90625 0 
L 45.90625 32.71875 
Q 45.90625 40.484375 42.875 44.328125 
Q 39.84375 48.1875 33.796875 48.1875 
Q 26.515625 48.1875 22.3125 43.546875 
Q 18.109375 38.921875 18.109375 30.90625 
L 18.109375 0 
L 9.078125 0 
L 9.078125 54.6875 
L 18.109375 54.6875 
L 18.109375 46.1875 
Q 21.34375 51.125 25.703125 53.5625 
Q 30.078125 56 35.796875 56 
Q 45.21875 56 50.046875 50.171875 
Q 54.890625 44.34375 54.890625 33.015625 
z
" id="DejaVuSans-110"/>
      <path d="M 12.40625 8.296875 
L 28.515625 8.296875 
L 28.515625 63.921875 
L 10.984375 60.40625 
L 10.984375 69.390625 
L 28.421875 72.90625 
L 38.28125 72.90625 
L 38.28125 8.296875 
L 54.390625 8.296875 
L 54.390625 0 
L 12.40625 0 
z
" id="DejaVuSans-49"/>
     </defs>
     <g transform="translate(436.706508 373.04403)scale(0.12 -0.12)">
      <use xlink:href="#DejaVuSans-110"/>
      <use x="63.378906" xlink:href="#DejaVuSans-49"/>
     </g>
    </g>
   </g>
   <g id="text_2">
    <g clip-path="url(#pc0fd793f59)">
     <!-- n4 -->
     <defs>
      <path d="M 37.796875 64.3125 
L 12.890625 25.390625 
L 37.796875 25.390625 
z
M 35.203125 72.90625 
L 47.609375 72.90625 
L 47.609375 25.390625 
L 58.015625 25.390625 
L 58.015625 17.1875 
L 47.609375 17.1875 
L 47.609375 0 
L 37.796875 0 
L 37.796875 17.1875 
L 4.890625 17.1875 
L 4.890625 26.703125 
z
" id="DejaVuSans-52"/>
     </defs>
     <g transform="translate(564.555502 394.400569)scale(0.12 -0.12)">
      <use xlink:href="#DejaVuSans-110"/>
      <use x="63.378906" xlink:href="#DejaVuSans-52"/>
     </g>
    </g>
   </g>
   <g id="text_3">
    <g clip-path="url(#pc0fd793f59)">
     <!-- n89 -->
     <defs>
      <path d="M 31.78125 34.625 
Q 24.75 34.625 20.71875 30.859375 
Q 16.703125 27.09375 16.703125 20.515625 
Q 16.703125 13.921875 20.71875 10.15625 
Q 24.75 6.390625 31.78125 6.390625 
Q 38.8125 6.390625 42.859375 10.171875 
Q 46.921875 13.96875 46.921875 20.515625 
Q 46.921875 27.09375 42.890625 30.859375 
Q 38.875 34.625 31.78125 34.625 
z
M 21.921875 38.8125 
Q 15.578125 40.375 12.03125 44.71875 
Q 8.5 49.078125 8.5 55.328125 
Q 8.5 64.0625 14.71875 69.140625 
Q 20.953125 74.21875 31.78125 74.21875 
Q 42.671875 74.21875 48.875 69.140625 
Q 55.078125 64.0625 55.078125 55.328125 
Q 55.078125 49.078125 51.53125 44.71875 
Q 48 40.375 41.703125 38.8125 
Q 48.828125 37.15625 52.796875 32.3125 
Q 56.78125 27.484375 56.78125 20.515625 
Q 56.78125 9.90625 50.3125 4.234375 
Q 43.84375 -1.421875 31.78125 -1.421875 
Q 19.734375 -1.421875 13.25 4.234375 
Q 6.78125 9.90625 6.78125 20.515625 
Q 6.78125 27.484375 10.78125 32.3125 
Q 14.796875 37.15625 21.921875 38.8125 
z
M 18.3125 54.390625 
Q 18.3125 48.734375 21.84375 45.5625 
Q 25.390625 42.390625 31.78125 42.390625 
Q 38.140625 42.390625 41.71875 45.5625 
Q 45.3125 48.734375 45.3125 54.390625 
Q 45.3125 60.0625 41.71875 63.234375 
Q 38.140625 66.40625 31.78125 66.40625 
Q 25.390625 66.40625 21.84375 63.234375 
Q 18.3125 60.0625 18.3125 54.390625 
z
" id="DejaVuSans-56"/>
      <path d="M 10.984375 1.515625 
L 10.984375 10.5 
Q 14.703125 8.734375 18.5 7.8125 
Q 22.3125 6.890625 25.984375 6.890625 
Q 35.75 6.890625 40.890625 13.453125 
Q 46.046875 20.015625 46.78125 33.40625 
Q 43.953125 29.203125 39.59375 26.953125 
Q 35.25 24.703125 29.984375 24.703125 
Q 19.046875 24.703125 12.671875 31.3125 
Q 6.296875 37.9375 6.296875 49.421875 
Q 6.296875 60.640625 12.9375 67.421875 
Q 19.578125 74.21875 30.609375 74.21875 
Q 43.265625 74.21875 49.921875 64.515625 
Q 56.59375 54.828125 56.59375 36.375 
Q 56.59375 19.140625 48.40625 8.859375 
Q 40.234375 -1.421875 26.421875 -1.421875 
Q 22.703125 -1.421875 18.890625 -0.6875 
Q 15.09375 0.046875 10.984375 1.515625 
z
M 30.609375 32.421875 
Q 37.25 32.421875 41.125 36.953125 
Q 45.015625 41.5 45.015625 49.421875 
Q 45.015625 57.28125 41.125 61.84375 
Q 37.25 66.40625 30.609375 66.40625 
Q 23.96875 66.40625 20.09375 61.84375 
Q 16.21875 57.28125 16.21875 49.421875 
Q 16.21875 41.5 20.09375 36.953125 
Q 23.96875 32.421875 30.609375 32.421875 
z
" id="DejaVuSans-57"/>
     </defs>
     <g transform="translate(311.869267 448.390696)scale(0.12 -0.12)">
      <use xlink:href="#DejaVuSans-110"/>
      <use x="63.378906" xlink:href="#DejaVuSans-56"/>
      <use x="127.001953" xlink:href="#DejaVuSans-57"/>
     </g>
    </g>
   </g>
   <g id="text_4">
    <g clip-path="url(#pc0fd793f59)">
     <!-- n83 -->
     <defs>
      <path d="M 40.578125 39.3125 
Q 47.65625 37.796875 51.625 33 
Q 55.609375 28.21875 55.609375 21.1875 
Q 55.609375 10.40625 48.1875 4.484375 
Q 40.765625 -1.421875 27.09375 -1.421875 
Q 22.515625 -1.421875 17.65625 -0.515625 
Q 12.796875 0.390625 7.625 2.203125 
L 7.625 11.71875 
Q 11.71875 9.328125 16.59375 8.109375 
Q 21.484375 6.890625 26.8125 6.890625 
Q 36.078125 6.890625 40.9375 10.546875 
Q 45.796875 14.203125 45.796875 21.1875 
Q 45.796875 27.640625 41.28125 31.265625 
Q 36.765625 34.90625 28.71875 34.90625 
L 20.21875 34.90625 
L 20.21875 43.015625 
L 29.109375 43.015625 
Q 36.375 43.015625 40.234375 45.921875 
Q 44.09375 48.828125 44.09375 54.296875 
Q 44.09375 59.90625 40.109375 62.90625 
Q 36.140625 65.921875 28.71875 65.921875 
Q 24.65625 65.921875 20.015625 65.03125 
Q 15.375 64.15625 9.8125 62.3125 
L 9.8125 71.09375 
Q 15.4375 72.65625 20.34375 73.4375 
Q 25.25 74.21875 29.59375 74.21875 
Q 40.828125 74.21875 47.359375 69.109375 
Q 53.90625 64.015625 53.90625 55.328125 
Q 53.90625 49.265625 50.4375 45.09375 
Q 46.96875 40.921875 40.578125 39.3125 
z
" id="DejaVuSans-51"/>
     </defs>
     <g transform="translate(499.437019 277.16415)scale(0.12 -0.12)">
      <use xlink:href="#DejaVuSans-110"/>
      <use x="63.378906" xlink:href="#DejaVuSans-56"/>
      <use x="127.001953" xlink:href="#DejaVuSans-51"/>
     </g>
    </g>
   </g>
   <g id="text_5">
    <g clip-path="url(#pc0fd793f59)">
     <!-- n3 -->
     <g transform="translate(497.885781 480.313233)scale(0.12 -0.12)">
      <use xlink:href="#DejaVuSans-110"/>
      <use x="63.378906" xlink:href="#DejaVuSans-51"/>
     </g>
    </g>
   </g>
   <g id="text_6">
    <g clip-path="url(#pc0fd793f59)">
     <!-- n5 -->
     <defs>
      <path d="M 10.796875 72.90625 
L 49.515625 72.90625 
L 49.515625 64.59375 
L 19.828125 64.59375 
L 19.828125 46.734375 
Q 21.96875 47.46875 24.109375 47.828125 
Q 26.265625 48.1875 28.421875 48.1875 
Q 40.625 48.1875 47.75 41.5 
Q 54.890625 34.8125 54.890625 23.390625 
Q 54.890625 11.625 47.5625 5.09375 
Q 40.234375 -1.421875 26.90625 -1.421875 
Q 22.3125 -1.421875 17.546875 -0.640625 
Q 12.796875 0.140625 7.71875 1.703125 
L 7.71875 11.625 
Q 12.109375 9.234375 16.796875 8.0625 
Q 21.484375 6.890625 26.703125 6.890625 
Q 35.15625 6.890625 40.078125 11.328125 
Q 45.015625 15.765625 45.015625 23.390625 
Q 45.015625 31 40.078125 35.4375 
Q 35.15625 39.890625 26.703125 39.890625 
Q 22.75 39.890625 18.8125 39.015625 
Q 14.890625 38.140625 10.796875 36.28125 
z
" id="DejaVuSans-53"/>
     </defs>
     <g transform="translate(375.554282 308.288311)scale(0.12 -0.12)">
      <use xlink:href="#DejaVuSans-110"/>
      <use x="63.378906" xlink:href="#DejaVuSans-53"/>
     </g>
    </g>
   </g>
   <g id="text_7">
    <g clip-path="url(#pc0fd793f59)">
     <!-- n88 -->
     <g transform="translate(493.64906 426.772191)scale(0.12 -0.12)">
      <use xlink:href="#DejaVuSans-110"/>
      <use x="63.378906" xlink:href="#DejaVuSans-56"/>
      <use x="127.001953" xlink:href="#DejaVuSans-56"/>
     </g>
    </g>
   </g>
   <g id="text_8">
    <g clip-path="url(#pc0fd793f59)">
     <!-- n85 -->
     <g transform="translate(514.515465 379.605677)scale(0.12 -0.12)">
      <use xlink:href="#DejaVuSans-110"/>
      <use x="63.378906" xlink:href="#DejaVuSans-56"/>
      <use x="127.001953" xlink:href="#DejaVuSans-53"/>
     </g>
    </g>
   </g>
   <g id="text_9">
    <g clip-path="url(#pc0fd793f59)">
     <!-- n90 -->
     <defs>
      <path d="M 31.78125 66.40625 
Q 24.171875 66.40625 20.328125 58.90625 
Q 16.5 51.421875 16.5 36.375 
Q 16.5 21.390625 20.328125 13.890625 
Q 24.171875 6.390625 31.78125 6.390625 
Q 39.453125 6.390625 43.28125 13.890625 
Q 47.125 21.390625 47.125 36.375 
Q 47.125 51.421875 43.28125 58.90625 
Q 39.453125 66.40625 31.78125 66.40625 
z
M 31.78125 74.21875 
Q 44.046875 74.21875 50.515625 64.515625 
Q 56.984375 54.828125 56.984375 36.375 
Q 56.984375 17.96875 50.515625 8.265625 
Q 44.046875 -1.421875 31.78125 -1.421875 
Q 19.53125 -1.421875 13.0625 8.265625 
Q 6.59375 17.96875 6.59375 36.375 
Q 6.59375 54.828125 13.0625 64.515625 
Q 19.53125 74.21875 31.78125 74.21875 
z
" id="DejaVuSans-48"/>
     </defs>
     <g transform="translate(430.846995 446.394758)scale(0.12 -0.12)">
      <use xlink:href="#DejaVuSans-110"/>
      <use x="63.378906" xlink:href="#DejaVuSans-57"/>
      <use x="127.001953" xlink:href="#DejaVuSans-48"/>
     </g>
    </g>
   </g>
   <g id="text_10">
    <g clip-path="url(#pc0fd793f59)">
     <!-- n86 -->
     <defs>
      <path d="M 33.015625 40.375 
Q 26.375 40.375 22.484375 35.828125 
Q 18.609375 31.296875 18.609375 23.390625 
Q 18.609375 15.53125 22.484375 10.953125 
Q 26.375 6.390625 33.015625 6.390625 
Q 39.65625 6.390625 43.53125 10.953125 
Q 47.40625 15.53125 47.40625 23.390625 
Q 47.40625 31.296875 43.53125 35.828125 
Q 39.65625 40.375 33.015625 40.375 
z
M 52.59375 71.296875 
L 52.59375 62.3125 
Q 48.875 64.0625 45.09375 64.984375 
Q 41.3125 65.921875 37.59375 65.921875 
Q 27.828125 65.921875 22.671875 59.328125 
Q 17.53125 52.734375 16.796875 39.40625 
Q 19.671875 43.65625 24.015625 45.921875 
Q 28.375 48.1875 33.59375 48.1875 
Q 44.578125 48.1875 50.953125 41.515625 
Q 57.328125 34.859375 57.328125 23.390625 
Q 57.328125 12.15625 50.6875 5.359375 
Q 44.046875 -1.421875 33.015625 -1.421875 
Q 20.359375 -1.421875 13.671875 8.265625 
Q 6.984375 17.96875 6.984375 36.375 
Q 6.984375 53.65625 15.1875 63.9375 
Q 23.390625 74.21875 37.203125 74.21875 
Q 40.921875 74.21875 44.703125 73.484375 
Q 48.484375 72.75 52.59375 71.296875 
z
" id="DejaVuSans-54"/>
     </defs>
     <g transform="translate(545.199764 295.277289)scale(0.12 -0.12)">
      <use xlink:href="#DejaVuSans-110"/>
      <use x="63.378906" xlink:href="#DejaVuSans-56"/>
      <use x="127.001953" xlink:href="#DejaVuSans-54"/>
     </g>
    </g>
   </g>
   <g id="text_11">
    <g clip-path="url(#pc0fd793f59)">
     <!-- n2 -->
     <defs>
      <path d="M 19.1875 8.296875 
L 53.609375 8.296875 
L 53.609375 0 
L 7.328125 0 
L 7.328125 8.296875 
Q 12.9375 14.109375 22.625 23.890625 
Q 32.328125 33.6875 34.8125 36.53125 
Q 39.546875 41.84375 41.421875 45.53125 
Q 43.3125 49.21875 43.3125 52.78125 
Q 43.3125 58.59375 39.234375 62.25 
Q 35.15625 65.921875 28.609375 65.921875 
Q 23.96875 65.921875 18.8125 64.3125 
Q 13.671875 62.703125 7.8125 59.421875 
L 7.8125 69.390625 
Q 13.765625 71.78125 18.9375 73 
Q 24.125 74.21875 28.421875 74.21875 
Q 39.75 74.21875 46.484375 68.546875 
Q 53.21875 62.890625 53.21875 53.421875 
Q 53.21875 48.921875 51.53125 44.890625 
Q 49.859375 40.875 45.40625 35.40625 
Q 44.1875 33.984375 37.640625 27.21875 
Q 31.109375 20.453125 19.1875 8.296875 
z
" id="DejaVuSans-50"/>
     </defs>
     <g transform="translate(359.610347 371.90884)scale(0.12 -0.12)">
      <use xlink:href="#DejaVuSans-110"/>
      <use x="63.378906" xlink:href="#DejaVuSans-50"/>
     </g>
    </g>
   </g>
   <g id="text_12">
    <g clip-path="url(#pc0fd793f59)">
     <!-- n7 -->
     <defs>
      <path d="M 8.203125 72.90625 
L 55.078125 72.90625 
L 55.078125 68.703125 
L 28.609375 0 
L 18.3125 0 
L 43.21875 64.59375 
L 8.203125 64.59375 
z
" id="DejaVuSans-55"/>
     </defs>
     <g transform="translate(195.437851 395.411012)scale(0.12 -0.12)">
      <use xlink:href="#DejaVuSans-110"/>
      <use x="63.378906" xlink:href="#DejaVuSans-55"/>
     </g>
    </g>
   </g>
   <g id="text_13">
    <g clip-path="url(#pc0fd793f59)">
     <!-- n6 -->
     <g transform="translate(320.62276 338.35213)scale(0.12 -0.12)">
      <use xlink:href="#DejaVuSans-110"/>
      <use x="63.378906" xlink:href="#DejaVuSans-54"/>
     </g>
    </g>
   </g>
   <g id="text_14">
    <g clip-path="url(#pc0fd793f59)">
     <!-- n8 -->
     <g transform="translate(545.555307 448.041407)scale(0.12 -0.12)">
      <use xlink:href="#DejaVuSans-110"/>
      <use x="63.378906" xlink:href="#DejaVuSans-56"/>
     </g>
    </g>
   </g>
   <g id="text_15">
    <g clip-path="url(#pc0fd793f59)">
     <!-- n47 -->
     <g transform="translate(558.95293 350.6022)scale(0.12 -0.12)">
      <use xlink:href="#DejaVuSans-110"/>
      <use x="63.378906" xlink:href="#DejaVuSans-52"/>
      <use x="127.001953" xlink:href="#DejaVuSans-55"/>
     </g>
    </g>
   </g>
   <g id="text_16">
    <g clip-path="url(#pc0fd793f59)">
     <!-- n76 -->
     <g transform="translate(501.127428 325.727821)scale(0.12 -0.12)">
      <use xlink:href="#DejaVuSans-110"/>
      <use x="63.378906" xlink:href="#DejaVuSans-55"/>
      <use x="127.001953" xlink:href="#DejaVuSans-54"/>
     </g>
    </g>
   </g>
   <g id="text_17">
    <g clip-path="url(#pc0fd793f59)">
     <!-- n9 -->
     <g transform="translate(455.855459 481.897509)scale(0.12 -0.12)">
      <use xlink:href="#DejaVuSans-110"/>
      <use x="63.378906" xlink:href="#DejaVuSans-57"/>
     </g>
    </g>
   </g>
   <g id="text_18">
    <g clip-path="url(#pc0fd793f59)">
     <!-- n35 -->
     <g transform="translate(652.777376 484.155414)scale(0.12 -0.12)">
      <use xlink:href="#DejaVuSans-110"/>
      <use x="63.378906" xlink:href="#DejaVuSans-51"/>
      <use x="127.001953" xlink:href="#DejaVuSans-53"/>
     </g>
    </g>
   </g>
   <g id="text_19">
    <g clip-path="url(#pc0fd793f59)">
     <!-- n11 -->
     <g transform="translate(368.74814 428.356467)scale(0.12 -0.12)">
      <use xlink:href="#DejaVuSans-110"/>
      <use x="63.378906" xlink:href="#DejaVuSans-49"/>
      <use x="127.001953" xlink:href="#DejaVuSans-49"/>
     </g>
    </g>
   </g>
   <g id="text_20">
    <g clip-path="url(#pc0fd793f59)">
     <!-- n53 -->
     <g transform="translate(323.580418 300.716221)scale(0.12 -0.12)">
      <use xlink:href="#DejaVuSans-110"/>
      <use x="63.378906" xlink:href="#DejaVuSans-53"/>
      <use x="127.001953" xlink:href="#DejaVuSans-51"/>
     </g>
    </g>
   </g>
   <g id="text_21">
    <g clip-path="url(#pc0fd793f59)">
     <!-- n84 -->
     <g transform="translate(414.280989 258.93874)scale(0.12 -0.12)">
      <use xlink:href="#DejaVuSans-110"/>
      <use x="63.378906" xlink:href="#DejaVuSans-56"/>
      <use x="127.001953" xlink:href="#DejaVuSans-52"/>
     </g>
    </g>
   </g>
   <g id="text_22">
    <g clip-path="url(#pc0fd793f59)">
     <!-- n49 -->
     <g transform="translate(316.115573 391.057372)scale(0.12 -0.12)">
      <use xlink:href="#DejaVuSans-110"/>
      <use x="63.378906" xlink:href="#DejaVuSans-52"/>
      <use x="127.001953" xlink:href="#DejaVuSans-57"/>
     </g>
    </g>
   </g>
   <g id="text_23">
    <g clip-path="url(#pc0fd793f59)">
     <!-- n107 -->
     <g transform="translate(568.645176 199.983716)scale(0.12 -0.12)">
      <use xlink:href="#DejaVuSans-110"/>
      <use x="63.378906" xlink:href="#DejaVuSans-49"/>
      <use x="127.001953" xlink:href="#DejaVuSans-48"/>
      <use x="190.625" xlink:href="#DejaVuSans-55"/>
     </g>
    </g>
   </g>
   <g id="text_24">
    <g clip-path="url(#pc0fd793f59)">
     <!-- n13 -->
     <g transform="translate(395.984005 488.621325)scale(0.12 -0.12)">
      <use xlink:href="#DejaVuSans-110"/>
      <use x="63.378906" xlink:href="#DejaVuSans-49"/>
      <use x="127.001953" xlink:href="#DejaVuSans-51"/>
     </g>
    </g>
   </g>
   <g id="text_25">
    <g clip-path="url(#pc0fd793f59)">
     <!-- n51 -->
     <g transform="translate(400.798289 608.602159)scale(0.12 -0.12)">
      <use xlink:href="#DejaVuSans-110"/>
      <use x="63.378906" xlink:href="#DejaVuSans-53"/>
      <use x="127.001953" xlink:href="#DejaVuSans-49"/>
     </g>
    </g>
   </g>
   <g id="text_26">
    <g clip-path="url(#pc0fd793f59)">
     <!-- n63 -->
     <g transform="translate(616.156361 114.420341)scale(0.12 -0.12)">
      <use xlink:href="#DejaVuSans-110"/>
      <use x="63.378906" xlink:href="#DejaVuSans-54"/>
      <use x="127.001953" xlink:href="#DejaVuSans-51"/>
     </g>
    </g>
   </g>
   <g id="text_27">
    <g clip-path="url(#pc0fd793f59)">
     <!-- n109 -->
     <g transform="translate(241.637636 531.66498)scale(0.12 -0.12)">
      <use xlink:href="#DejaVuSans-110"/>
      <use x="63.378906" xlink:href="#DejaVuSans-49"/>
      <use x="127.001953" xlink:href="#DejaVuSans-48"/>
      <use x="190.625" xlink:href="#DejaVuSans-57"/>
     </g>
    </g>
   </g>
   <g id="text_28">
    <g clip-path="url(#pc0fd793f59)">
     <!-- n31 -->
     <g transform="translate(380.540431 548.866224)scale(0.12 -0.12)">
      <use xlink:href="#DejaVuSans-110"/>
      <use x="63.378906" xlink:href="#DejaVuSans-51"/>
      <use x="127.001953" xlink:href="#DejaVuSans-49"/>
     </g>
    </g>
   </g>
   <g id="text_29">
    <g clip-path="url(#pc0fd793f59)">
     <!-- n12 -->
     <g transform="translate(558.641895 568.976549)scale(0.12 -0.12)">
      <use xlink:href="#DejaVuSans-110"/>
      <use x="63.378906" xlink:href="#DejaVuSans-49"/>
      <use x="127.001953" xlink:href="#DejaVuSans-50"/>
     </g>
    </g>
   </g>
   <g id="text_30">
    <g clip-path="url(#pc0fd793f59)">
     <!-- n14 -->
     <g transform="translate(201.508566 467.763771)scale(0.12 -0.12)">
      <use xlink:href="#DejaVuSans-110"/>
      <use x="63.378906" xlink:href="#DejaVuSans-49"/>
      <use x="127.001953" xlink:href="#DejaVuSans-52"/>
     </g>
    </g>
   </g>
   <g id="text_31">
    <g clip-path="url(#pc0fd793f59)">
     <!-- n52 -->
     <g transform="translate(441.16525 298.171399)scale(0.12 -0.12)">
      <use xlink:href="#DejaVuSans-110"/>
      <use x="63.378906" xlink:href="#DejaVuSans-53"/>
      <use x="127.001953" xlink:href="#DejaVuSans-50"/>
     </g>
    </g>
   </g>
   <g id="text_32">
    <g clip-path="url(#pc0fd793f59)">
     <!-- n106 -->
     <g transform="translate(443.406174 254.185912)scale(0.12 -0.12)">
      <use xlink:href="#DejaVuSans-110"/>
      <use x="63.378906" xlink:href="#DejaVuSans-49"/>
      <use x="127.001953" xlink:href="#DejaVuSans-48"/>
      <use x="190.625" xlink:href="#DejaVuSans-54"/>
     </g>
    </g>
   </g>
   <g id="text_33">
    <g clip-path="url(#pc0fd793f59)">
     <!-- n15 -->
     <g transform="translate(360.296096 267.907987)scale(0.12 -0.12)">
      <use xlink:href="#DejaVuSans-110"/>
      <use x="63.378906" xlink:href="#DejaVuSans-49"/>
      <use x="127.001953" xlink:href="#DejaVuSans-53"/>
     </g>
    </g>
   </g>
   <g id="text_34">
    <!-- Phase X -->
    <defs>
     <path d="M 19.671875 64.796875 
L 19.671875 37.40625 
L 32.078125 37.40625 
Q 38.96875 37.40625 42.71875 40.96875 
Q 46.484375 44.53125 46.484375 51.125 
Q 46.484375 57.671875 42.71875 61.234375 
Q 38.96875 64.796875 32.078125 64.796875 
z
M 9.8125 72.90625 
L 32.078125 72.90625 
Q 44.34375 72.90625 50.609375 67.359375 
Q 56.890625 61.8125 56.890625 51.125 
Q 56.890625 40.328125 50.609375 34.8125 
Q 44.34375 29.296875 32.078125 29.296875 
L 19.671875 29.296875 
L 19.671875 0 
L 9.8125 0 
z
" id="DejaVuSans-80"/>
     <path d="M 54.890625 33.015625 
L 54.890625 0 
L 45.90625 0 
L 45.90625 32.71875 
Q 45.90625 40.484375 42.875 44.328125 
Q 39.84375 48.1875 33.796875 48.1875 
Q 26.515625 48.1875 22.3125 43.546875 
Q 18.109375 38.921875 18.109375 30.90625 
L 18.109375 0 
L 9.078125 0 
L 9.078125 75.984375 
L 18.109375 75.984375 
L 18.109375 46.1875 
Q 21.34375 51.125 25.703125 53.5625 
Q 30.078125 56 35.796875 56 
Q 45.21875 56 50.046875 50.171875 
Q 54.890625 44.34375 54.890625 33.015625 
z
" id="DejaVuSans-104"/>
     <path d="M 34.28125 27.484375 
Q 23.390625 27.484375 19.1875 25 
Q 14.984375 22.515625 14.984375 16.5 
Q 14.984375 11.71875 18.140625 8.90625 
Q 21.296875 6.109375 26.703125 6.109375 
Q 34.1875 6.109375 38.703125 11.40625 
Q 43.21875 16.703125 43.21875 25.484375 
L 43.21875 27.484375 
z
M 52.203125 31.203125 
L 52.203125 0 
L 43.21875 0 
L 43.21875 8.296875 
Q 40.140625 3.328125 35.546875 0.953125 
Q 30.953125 -1.421875 24.3125 -1.421875 
Q 15.921875 -1.421875 10.953125 3.296875 
Q 6 8.015625 6 15.921875 
Q 6 25.140625 12.171875 29.828125 
Q 18.359375 34.515625 30.609375 34.515625 
L 43.21875 34.515625 
L 43.21875 35.40625 
Q 43.21875 41.609375 39.140625 45 
Q 35.0625 48.390625 27.6875 48.390625 
Q 23 48.390625 18.546875 47.265625 
Q 14.109375 46.140625 10.015625 43.890625 
L 10.015625 52.203125 
Q 14.9375 54.109375 19.578125 55.046875 
Q 24.21875 56 28.609375 56 
Q 40.484375 56 46.34375 49.84375 
Q 52.203125 43.703125 52.203125 31.203125 
z
" id="DejaVuSans-97"/>
     <path d="M 44.28125 53.078125 
L 44.28125 44.578125 
Q 40.484375 46.53125 36.375 47.5 
Q 32.28125 48.484375 27.875 48.484375 
Q 21.1875 48.484375 17.84375 46.4375 
Q 14.5 44.390625 14.5 40.28125 
Q 14.5 37.15625 16.890625 35.375 
Q 19.28125 33.59375 26.515625 31.984375 
L 29.59375 31.296875 
Q 39.15625 29.25 43.1875 25.515625 
Q 47.21875 21.78125 47.21875 15.09375 
Q 47.21875 7.46875 41.1875 3.015625 
Q 35.15625 -1.421875 24.609375 -1.421875 
Q 20.21875 -1.421875 15.453125 -0.5625 
Q 10.6875 0.296875 5.421875 2 
L 5.421875 11.28125 
Q 10.40625 8.6875 15.234375 7.390625 
Q 20.0625 6.109375 24.8125 6.109375 
Q 31.15625 6.109375 34.5625 8.28125 
Q 37.984375 10.453125 37.984375 14.40625 
Q 37.984375 18.0625 35.515625 20.015625 
Q 33.0625 21.96875 24.703125 23.78125 
L 21.578125 24.515625 
Q 13.234375 26.265625 9.515625 29.90625 
Q 5.8125 33.546875 5.8125 39.890625 
Q 5.8125 47.609375 11.28125 51.796875 
Q 16.75 56 26.8125 56 
Q 31.78125 56 36.171875 55.265625 
Q 40.578125 54.546875 44.28125 53.078125 
z
" id="DejaVuSans-115"/>
     <path d="M 56.203125 29.59375 
L 56.203125 25.203125 
L 14.890625 25.203125 
Q 15.484375 15.921875 20.484375 11.0625 
Q 25.484375 6.203125 34.421875 6.203125 
Q 39.59375 6.203125 44.453125 7.46875 
Q 49.3125 8.734375 54.109375 11.28125 
L 54.109375 2.78125 
Q 49.265625 0.734375 44.1875 -0.34375 
Q 39.109375 -1.421875 33.890625 -1.421875 
Q 20.796875 -1.421875 13.15625 6.1875 
Q 5.515625 13.8125 5.515625 26.8125 
Q 5.515625 40.234375 12.765625 48.109375 
Q 20.015625 56 32.328125 56 
Q 43.359375 56 49.78125 48.890625 
Q 56.203125 41.796875 56.203125 29.59375 
z
M 47.21875 32.234375 
Q 47.125 39.59375 43.09375 43.984375 
Q 39.0625 48.390625 32.421875 48.390625 
Q 24.90625 48.390625 20.390625 44.140625 
Q 15.875 39.890625 15.1875 32.171875 
z
" id="DejaVuSans-101"/>
     <path id="DejaVuSans-32"/>
     <path d="M 6.296875 72.90625 
L 16.890625 72.90625 
L 35.015625 45.796875 
L 53.21875 72.90625 
L 63.8125 72.90625 
L 40.375 37.890625 
L 65.375 0 
L 54.78125 0 
L 34.28125 31 
L 13.625 0 
L 2.984375 0 
L 29 38.921875 
z
" id="DejaVuSans-88"/>
    </defs>
    <g transform="translate(409.704801 80.4)scale(0.12 -0.12)">
     <use xlink:href="#DejaVuSans-80"/>
     <use x="60.302734" xlink:href="#DejaVuSans-104"/>
     <use x="123.681641" xlink:href="#DejaVuSans-97"/>
     <use x="184.960938" xlink:href="#DejaVuSans-115"/>
     <use x="237.060547" xlink:href="#DejaVuSans-101"/>
     <use x="298.583984" xlink:href="#DejaVuSans-32"/>
     <use x="330.371094" xlink:href="#DejaVuSans-88"/>
    </g>
   </g>
  </g>
  <g id="axes_2">
   <g id="LineCollection_2">
    <path clip-path="url(#pf92b71d271)" d="M 997.380299 338.083804 
L 1022.176715 251.676857 
" style="fill:none;stroke:#000000;"/>
    <path clip-path="url(#pf92b71d271)" d="M 997.380299 338.083804 
L 1090.103778 284.810348 
" style="fill:none;stroke:#000000;"/>
    <path clip-path="url(#pf92b71d271)" d="M 997.380299 338.083804 
L 898.492545 209.574664 
" style="fill:none;stroke:#000000;"/>
    <path clip-path="url(#pf92b71d271)" d="M 997.380299 338.083804 
L 1119.450404 347.195117 
" style="fill:none;stroke:#000000;"/>
    <path clip-path="url(#pf92b71d271)" d="M 997.380299 338.083804 
L 933.692192 397.457878 
" style="fill:none;stroke:#000000;"/>
    <path clip-path="url(#pf92b71d271)" d="M 997.380299 338.083804 
L 1083.7157 461.046926 
" style="fill:none;stroke:#000000;"/>
    <path clip-path="url(#pf92b71d271)" d="M 997.380299 338.083804 
L 1034.597156 469.983937 
" style="fill:none;stroke:#000000;"/>
    <path clip-path="url(#pf92b71d271)" d="M 997.380299 338.083804 
L 892.906311 438.894549 
" style="fill:none;stroke:#000000;"/>
    <path clip-path="url(#pf92b71d271)" d="M 997.380299 338.083804 
L 986.14558 443.965194 
" style="fill:none;stroke:#000000;"/>
    <path clip-path="url(#pf92b71d271)" d="M 997.380299 338.083804 
L 930.861281 476.895859 
" style="fill:none;stroke:#000000;"/>
    <path clip-path="url(#pf92b71d271)" d="M 997.380299 338.083804 
L 853.030472 326.944232 
" style="fill:none;stroke:#000000;"/>
    <path clip-path="url(#pf92b71d271)" d="M 997.380299 338.083804 
L 1061.690909 379.092639 
" style="fill:none;stroke:#000000;"/>
    <path clip-path="url(#pf92b71d271)" d="M 997.380299 338.083804 
L 1030.921417 202.713448 
" style="fill:none;stroke:#000000;"/>
    <path clip-path="url(#pf92b71d271)" d="M 997.380299 338.083804 
L 953.538219 220.524086 
" style="fill:none;stroke:#000000;"/>
    <path clip-path="url(#pf92b71d271)" d="M 997.380299 338.083804 
L 985.241467 494.730265 
" style="fill:none;stroke:#000000;"/>
    <path clip-path="url(#pf92b71d271)" d="M 997.380299 338.083804 
L 1124.934369 391.975244 
" style="fill:none;stroke:#000000;"/>
    <path clip-path="url(#pf92b71d271)" d="M 997.380299 338.083804 
L 1138.169994 266.080655 
" style="fill:none;stroke:#000000;"/>
    <path clip-path="url(#pf92b71d271)" d="M 997.380299 338.083804 
L 892.962633 351.742851 
" style="fill:none;stroke:#000000;"/>
    <path clip-path="url(#pf92b71d271)" d="M 997.380299 338.083804 
L 874.191168 274.985974 
" style="fill:none;stroke:#000000;"/>
    <path clip-path="url(#pf92b71d271)" d="M 997.380299 338.083804 
L 926.918754 274.383835 
" style="fill:none;stroke:#000000;"/>
    <path clip-path="url(#pf92b71d271)" d="M 997.380299 338.083804 
L 861.73812 397.299421 
" style="fill:none;stroke:#000000;"/>
    <path clip-path="url(#pf92b71d271)" d="M 997.380299 338.083804 
L 982.692164 185.378183 
" style="fill:none;stroke:#000000;"/>
    <path clip-path="url(#pf92b71d271)" d="M 1090.103778 284.810348 
L 1234.761892 240.362982 
" style="fill:none;stroke:#000000;"/>
    <path clip-path="url(#pf92b71d271)" d="M 1090.103778 284.810348 
L 1061.690909 379.092639 
" style="fill:none;stroke:#000000;"/>
    <path clip-path="url(#pf92b71d271)" d="M 898.492545 209.574664 
L 811.785124 115.640979 
" style="fill:none;stroke:#000000;"/>
    <path clip-path="url(#pf92b71d271)" d="M 1119.450404 347.195117 
L 1083.7157 461.046926 
" style="fill:none;stroke:#000000;"/>
    <path clip-path="url(#pf92b71d271)" d="M 1119.450404 347.195117 
L 1241.861404 358.112848 
" style="fill:none;stroke:#000000;"/>
    <path clip-path="url(#pf92b71d271)" d="M 1119.450404 347.195117 
L 1124.934369 391.975244 
" style="fill:none;stroke:#000000;"/>
    <path clip-path="url(#pf92b71d271)" d="M 1119.450404 347.195117 
L 1138.169994 266.080655 
" style="fill:none;stroke:#000000;"/>
    <path clip-path="url(#pf92b71d271)" d="M 933.692192 397.457878 
L 986.14558 443.965194 
" style="fill:none;stroke:#000000;"/>
    <path clip-path="url(#pf92b71d271)" d="M 1104.080479 605.290909 
L 1083.7157 461.046926 
" style="fill:none;stroke:#000000;"/>
    <path clip-path="url(#pf92b71d271)" d="M 892.906311 438.894549 
L 892.962633 351.742851 
" style="fill:none;stroke:#000000;"/>
    <path clip-path="url(#pf92b71d271)" d="M 1241.861404 358.112848 
L 1138.169994 266.080655 
" style="fill:none;stroke:#000000;"/>
    <path clip-path="url(#pf92b71d271)" d="M 1129.01029 111.109091 
L 1138.169994 266.080655 
" style="fill:none;stroke:#000000;"/>
    <path clip-path="url(#pf92b71d271)" d="M 1221.867163 492.835112 
L 1124.934369 391.975244 
" style="fill:none;stroke:#000000;"/>
    <path clip-path="url(#pf92b71d271)" d="M 1124.934369 391.975244 
L 1138.169994 266.080655 
" style="fill:none;stroke:#000000;"/>
    <path clip-path="url(#pf92b71d271)" d="M 1138.169994 266.080655 
L 1272.942149 283.368383 
" style="fill:none;stroke:#000000;"/>
    <path clip-path="url(#pf92b71d271)" d="M 1138.169994 266.080655 
L 1186.310317 137.729973 
" style="fill:none;stroke:#000000;"/>
    <path clip-path="url(#pf92b71d271)" d="M 1138.169994 266.080655 
L 1238.007807 186.043705 
" style="fill:none;stroke:#000000;"/>
   </g>
   <g id="PathCollection_2">
    <g clip-path="url(#pf92b71d271)">
     <use style="fill:#7fff00;stroke:#000000;stroke-width:3;" x="997.380299" xlink:href="#mdaf219a9e3" y="338.083804"/>
     <use style="fill:#7fff00;stroke:#000000;stroke-width:3;" x="1022.176715" xlink:href="#mdaf219a9e3" y="251.676857"/>
     <use style="fill:#7fff00;stroke:#000000;stroke-width:3;" x="1090.103778" xlink:href="#mdaf219a9e3" y="284.810348"/>
     <use style="fill:#7fff00;stroke:#000000;stroke-width:3;" x="898.492545" xlink:href="#mdaf219a9e3" y="209.574664"/>
     <use style="fill:#7fff00;stroke:#000000;stroke-width:3;" x="1119.450404" xlink:href="#mdaf219a9e3" y="347.195117"/>
     <use style="fill:#7fff00;stroke:#000000;stroke-width:3;" x="933.692192" xlink:href="#mdaf219a9e3" y="397.457878"/>
     <use style="fill:#7fff00;stroke:#000000;stroke-width:3;" x="1104.080479" xlink:href="#mdaf219a9e3" y="605.290909"/>
     <use style="fill:#7fff00;stroke:#000000;stroke-width:3;" x="1083.7157" xlink:href="#mdaf219a9e3" y="461.046926"/>
     <use style="fill:#7fff00;stroke:#000000;stroke-width:3;" x="811.785124" xlink:href="#mdaf219a9e3" y="115.640979"/>
     <use style="fill:#7fff00;stroke:#000000;stroke-width:3;" x="1034.597156" xlink:href="#mdaf219a9e3" y="469.983937"/>
     <use style="fill:#7fff00;stroke:#000000;stroke-width:3;" x="1234.761892" xlink:href="#mdaf219a9e3" y="240.362982"/>
     <use style="fill:#7fff00;stroke:#000000;stroke-width:3;" x="892.906311" xlink:href="#mdaf219a9e3" y="438.894549"/>
     <use style="fill:#7fff00;stroke:#000000;stroke-width:3;" x="986.14558" xlink:href="#mdaf219a9e3" y="443.965194"/>
     <use style="fill:#7fff00;stroke:#000000;stroke-width:3;" x="930.861281" xlink:href="#mdaf219a9e3" y="476.895859"/>
     <use style="fill:#7fff00;stroke:#000000;stroke-width:3;" x="853.030472" xlink:href="#mdaf219a9e3" y="326.944232"/>
     <use style="fill:#7fff00;stroke:#000000;stroke-width:3;" x="1061.690909" xlink:href="#mdaf219a9e3" y="379.092639"/>
     <use style="fill:#7fff00;stroke:#000000;stroke-width:3;" x="1241.861404" xlink:href="#mdaf219a9e3" y="358.112848"/>
     <use style="fill:#7fff00;stroke:#000000;stroke-width:3;" x="1030.921417" xlink:href="#mdaf219a9e3" y="202.713448"/>
     <use style="fill:#7fff00;stroke:#000000;stroke-width:3;" x="953.538219" xlink:href="#mdaf219a9e3" y="220.524086"/>
     <use style="fill:#7fff00;stroke:#000000;stroke-width:3;" x="1129.01029" xlink:href="#mdaf219a9e3" y="111.109091"/>
     <use style="fill:#7fff00;stroke:#000000;stroke-width:3;" x="985.241467" xlink:href="#mdaf219a9e3" y="494.730265"/>
     <use style="fill:#7fff00;stroke:#000000;stroke-width:3;" x="1221.867163" xlink:href="#mdaf219a9e3" y="492.835112"/>
     <use style="fill:#7fff00;stroke:#000000;stroke-width:3;" x="1124.934369" xlink:href="#mdaf219a9e3" y="391.975244"/>
     <use style="fill:#7fff00;stroke:#000000;stroke-width:3;" x="1138.169994" xlink:href="#mdaf219a9e3" y="266.080655"/>
     <use style="fill:#7fff00;stroke:#000000;stroke-width:3;" x="892.962633" xlink:href="#mdaf219a9e3" y="351.742851"/>
     <use style="fill:#7fff00;stroke:#000000;stroke-width:3;" x="874.191168" xlink:href="#mdaf219a9e3" y="274.985974"/>
     <use style="fill:#7fff00;stroke:#000000;stroke-width:3;" x="1272.942149" xlink:href="#mdaf219a9e3" y="283.368383"/>
     <use style="fill:#7fff00;stroke:#000000;stroke-width:3;" x="1186.310317" xlink:href="#mdaf219a9e3" y="137.729973"/>
     <use style="fill:#7fff00;stroke:#000000;stroke-width:3;" x="1238.007807" xlink:href="#mdaf219a9e3" y="186.043705"/>
     <use style="fill:#7fff00;stroke:#000000;stroke-width:3;" x="926.918754" xlink:href="#mdaf219a9e3" y="274.383835"/>
     <use style="fill:#7fff00;stroke:#000000;stroke-width:3;" x="861.73812" xlink:href="#mdaf219a9e3" y="397.299421"/>
     <use style="fill:#7fff00;stroke:#000000;stroke-width:3;" x="982.692164" xlink:href="#mdaf219a9e3" y="185.378183"/>
    </g>
   </g>
   <g id="text_35">
    <g clip-path="url(#pf92b71d271)">
     <!-- n1 -->
     <g transform="translate(989.760299 341.395054)scale(0.12 -0.12)">
      <use xlink:href="#DejaVuSans-110"/>
      <use x="63.378906" xlink:href="#DejaVuSans-49"/>
     </g>
    </g>
   </g>
   <g id="text_36">
    <g clip-path="url(#pf92b71d271)">
     <!-- n4 -->
     <g transform="translate(1014.556715 254.988107)scale(0.12 -0.12)">
      <use xlink:href="#DejaVuSans-110"/>
      <use x="63.378906" xlink:href="#DejaVuSans-52"/>
     </g>
    </g>
   </g>
   <g id="text_37">
    <g clip-path="url(#pf92b71d271)">
     <!-- n89 -->
     <g transform="translate(1078.666278 288.121598)scale(0.12 -0.12)">
      <use xlink:href="#DejaVuSans-110"/>
      <use x="63.378906" xlink:href="#DejaVuSans-56"/>
      <use x="127.001953" xlink:href="#DejaVuSans-57"/>
     </g>
    </g>
   </g>
   <g id="text_38">
    <g clip-path="url(#pf92b71d271)">
     <!-- n83 -->
     <g transform="translate(887.055045 212.885914)scale(0.12 -0.12)">
      <use xlink:href="#DejaVuSans-110"/>
      <use x="63.378906" xlink:href="#DejaVuSans-56"/>
      <use x="127.001953" xlink:href="#DejaVuSans-51"/>
     </g>
    </g>
   </g>
   <g id="text_39">
    <g clip-path="url(#pf92b71d271)">
     <!-- n3 -->
     <g transform="translate(1111.830404 350.506367)scale(0.12 -0.12)">
      <use xlink:href="#DejaVuSans-110"/>
      <use x="63.378906" xlink:href="#DejaVuSans-51"/>
     </g>
    </g>
   </g>
   <g id="text_40">
    <g clip-path="url(#pf92b71d271)">
     <!-- n5 -->
     <g transform="translate(926.072192 400.769128)scale(0.12 -0.12)">
      <use xlink:href="#DejaVuSans-110"/>
      <use x="63.378906" xlink:href="#DejaVuSans-53"/>
     </g>
    </g>
   </g>
   <g id="text_41">
    <g clip-path="url(#pf92b71d271)">
     <!-- n88 -->
     <g transform="translate(1092.642979 608.602159)scale(0.12 -0.12)">
      <use xlink:href="#DejaVuSans-110"/>
      <use x="63.378906" xlink:href="#DejaVuSans-56"/>
      <use x="127.001953" xlink:href="#DejaVuSans-56"/>
     </g>
    </g>
   </g>
   <g id="text_42">
    <g clip-path="url(#pf92b71d271)">
     <!-- n85 -->
     <g transform="translate(1072.2782 464.358176)scale(0.12 -0.12)">
      <use xlink:href="#DejaVuSans-110"/>
      <use x="63.378906" xlink:href="#DejaVuSans-56"/>
      <use x="127.001953" xlink:href="#DejaVuSans-53"/>
     </g>
    </g>
   </g>
   <g id="text_43">
    <g clip-path="url(#pf92b71d271)">
     <!-- n86 -->
     <g transform="translate(800.347624 118.952229)scale(0.12 -0.12)">
      <use xlink:href="#DejaVuSans-110"/>
      <use x="63.378906" xlink:href="#DejaVuSans-56"/>
      <use x="127.001953" xlink:href="#DejaVuSans-54"/>
     </g>
    </g>
   </g>
   <g id="text_44">
    <g clip-path="url(#pf92b71d271)">
     <!-- n2 -->
     <g transform="translate(1026.977156 473.295187)scale(0.12 -0.12)">
      <use xlink:href="#DejaVuSans-110"/>
      <use x="63.378906" xlink:href="#DejaVuSans-50"/>
     </g>
    </g>
   </g>
   <g id="text_45">
    <g clip-path="url(#pf92b71d271)">
     <!-- n7 -->
     <g transform="translate(1227.141892 243.674232)scale(0.12 -0.12)">
      <use xlink:href="#DejaVuSans-110"/>
      <use x="63.378906" xlink:href="#DejaVuSans-55"/>
     </g>
    </g>
   </g>
   <g id="text_46">
    <g clip-path="url(#pf92b71d271)">
     <!-- n6 -->
     <g transform="translate(885.286311 442.205799)scale(0.12 -0.12)">
      <use xlink:href="#DejaVuSans-110"/>
      <use x="63.378906" xlink:href="#DejaVuSans-54"/>
     </g>
    </g>
   </g>
   <g id="text_47">
    <g clip-path="url(#pf92b71d271)">
     <!-- n8 -->
     <g transform="translate(978.52558 447.276444)scale(0.12 -0.12)">
      <use xlink:href="#DejaVuSans-110"/>
      <use x="63.378906" xlink:href="#DejaVuSans-56"/>
     </g>
    </g>
   </g>
   <g id="text_48">
    <g clip-path="url(#pf92b71d271)">
     <!-- n55 -->
     <g transform="translate(919.423781 480.207109)scale(0.12 -0.12)">
      <use xlink:href="#DejaVuSans-110"/>
      <use x="63.378906" xlink:href="#DejaVuSans-53"/>
      <use x="127.001953" xlink:href="#DejaVuSans-53"/>
     </g>
    </g>
   </g>
   <g id="text_49">
    <g clip-path="url(#pf92b71d271)">
     <!-- n47 -->
     <g transform="translate(841.592972 330.255482)scale(0.12 -0.12)">
      <use xlink:href="#DejaVuSans-110"/>
      <use x="63.378906" xlink:href="#DejaVuSans-52"/>
      <use x="127.001953" xlink:href="#DejaVuSans-55"/>
     </g>
    </g>
   </g>
   <g id="text_50">
    <g clip-path="url(#pf92b71d271)">
     <!-- n76 -->
     <g transform="translate(1050.253409 382.403889)scale(0.12 -0.12)">
      <use xlink:href="#DejaVuSans-110"/>
      <use x="63.378906" xlink:href="#DejaVuSans-55"/>
      <use x="127.001953" xlink:href="#DejaVuSans-54"/>
     </g>
    </g>
   </g>
   <g id="text_51">
    <g clip-path="url(#pf92b71d271)">
     <!-- n9 -->
     <g transform="translate(1234.241404 361.424098)scale(0.12 -0.12)">
      <use xlink:href="#DejaVuSans-110"/>
      <use x="63.378906" xlink:href="#DejaVuSans-57"/>
     </g>
    </g>
   </g>
   <g id="text_52">
    <g clip-path="url(#pf92b71d271)">
     <!-- n34 -->
     <g transform="translate(1019.483917 206.024698)scale(0.12 -0.12)">
      <use xlink:href="#DejaVuSans-110"/>
      <use x="63.378906" xlink:href="#DejaVuSans-51"/>
      <use x="127.001953" xlink:href="#DejaVuSans-52"/>
     </g>
    </g>
   </g>
   <g id="text_53">
    <g clip-path="url(#pf92b71d271)">
     <!-- n11 -->
     <g transform="translate(942.100719 223.835336)scale(0.12 -0.12)">
      <use xlink:href="#DejaVuSans-110"/>
      <use x="63.378906" xlink:href="#DejaVuSans-49"/>
      <use x="127.001953" xlink:href="#DejaVuSans-49"/>
     </g>
    </g>
   </g>
   <g id="text_54">
    <g clip-path="url(#pf92b71d271)">
     <!-- n32 -->
     <g transform="translate(1117.57279 114.420341)scale(0.12 -0.12)">
      <use xlink:href="#DejaVuSans-110"/>
      <use x="63.378906" xlink:href="#DejaVuSans-51"/>
      <use x="127.001953" xlink:href="#DejaVuSans-50"/>
     </g>
    </g>
   </g>
   <g id="text_55">
    <g clip-path="url(#pf92b71d271)">
     <!-- n84 -->
     <g transform="translate(973.803967 498.041515)scale(0.12 -0.12)">
      <use xlink:href="#DejaVuSans-110"/>
      <use x="63.378906" xlink:href="#DejaVuSans-56"/>
      <use x="127.001953" xlink:href="#DejaVuSans-52"/>
     </g>
    </g>
   </g>
   <g id="text_56">
    <g clip-path="url(#pf92b71d271)">
     <!-- n13 -->
     <g transform="translate(1210.429663 496.146362)scale(0.12 -0.12)">
      <use xlink:href="#DejaVuSans-110"/>
      <use x="63.378906" xlink:href="#DejaVuSans-49"/>
      <use x="127.001953" xlink:href="#DejaVuSans-51"/>
     </g>
    </g>
   </g>
   <g id="text_57">
    <g clip-path="url(#pf92b71d271)">
     <!-- n31 -->
     <g transform="translate(1113.496869 395.286494)scale(0.12 -0.12)">
      <use xlink:href="#DejaVuSans-110"/>
      <use x="63.378906" xlink:href="#DejaVuSans-51"/>
      <use x="127.001953" xlink:href="#DejaVuSans-49"/>
     </g>
    </g>
   </g>
   <g id="text_58">
    <g clip-path="url(#pf92b71d271)">
     <!-- n12 -->
     <g transform="translate(1126.732494 269.391905)scale(0.12 -0.12)">
      <use xlink:href="#DejaVuSans-110"/>
      <use x="63.378906" xlink:href="#DejaVuSans-49"/>
      <use x="127.001953" xlink:href="#DejaVuSans-50"/>
     </g>
    </g>
   </g>
   <g id="text_59">
    <g clip-path="url(#pf92b71d271)">
     <!-- n108 -->
     <g transform="translate(877.707633 355.054101)scale(0.12 -0.12)">
      <use xlink:href="#DejaVuSans-110"/>
      <use x="63.378906" xlink:href="#DejaVuSans-49"/>
      <use x="127.001953" xlink:href="#DejaVuSans-48"/>
      <use x="190.625" xlink:href="#DejaVuSans-56"/>
     </g>
    </g>
   </g>
   <g id="text_60">
    <g clip-path="url(#pf92b71d271)">
     <!-- n100 -->
     <g transform="translate(858.936168 278.297224)scale(0.12 -0.12)">
      <use xlink:href="#DejaVuSans-110"/>
      <use x="63.378906" xlink:href="#DejaVuSans-49"/>
      <use x="127.001953" xlink:href="#DejaVuSans-48"/>
      <use x="190.625" xlink:href="#DejaVuSans-48"/>
     </g>
    </g>
   </g>
   <g id="text_61">
    <g clip-path="url(#pf92b71d271)">
     <!-- n18 -->
     <g transform="translate(1261.504649 286.679633)scale(0.12 -0.12)">
      <use xlink:href="#DejaVuSans-110"/>
      <use x="63.378906" xlink:href="#DejaVuSans-49"/>
      <use x="127.001953" xlink:href="#DejaVuSans-56"/>
     </g>
    </g>
   </g>
   <g id="text_62">
    <g clip-path="url(#pf92b71d271)">
     <!-- n17 -->
     <g transform="translate(1174.872817 141.041223)scale(0.12 -0.12)">
      <use xlink:href="#DejaVuSans-110"/>
      <use x="63.378906" xlink:href="#DejaVuSans-49"/>
      <use x="127.001953" xlink:href="#DejaVuSans-55"/>
     </g>
    </g>
   </g>
   <g id="text_63">
    <g clip-path="url(#pf92b71d271)">
     <!-- n25 -->
     <g transform="translate(1226.570307 189.354955)scale(0.12 -0.12)">
      <use xlink:href="#DejaVuSans-110"/>
      <use x="63.378906" xlink:href="#DejaVuSans-50"/>
      <use x="127.001953" xlink:href="#DejaVuSans-53"/>
     </g>
    </g>
   </g>
   <g id="text_64">
    <g clip-path="url(#pf92b71d271)">
     <!-- n82 -->
     <g transform="translate(915.481254 277.695085)scale(0.12 -0.12)">
      <use xlink:href="#DejaVuSans-110"/>
      <use x="63.378906" xlink:href="#DejaVuSans-56"/>
      <use x="127.001953" xlink:href="#DejaVuSans-50"/>
     </g>
    </g>
   </g>
   <g id="text_65">
    <g clip-path="url(#pf92b71d271)">
     <!-- n19 -->
     <g transform="translate(850.30062 400.610671)scale(0.12 -0.12)">
      <use xlink:href="#DejaVuSans-110"/>
      <use x="63.378906" xlink:href="#DejaVuSans-49"/>
      <use x="127.001953" xlink:href="#DejaVuSans-57"/>
     </g>
    </g>
   </g>
   <g id="text_66">
    <g clip-path="url(#pf92b71d271)">
     <!-- n15 -->
     <g transform="translate(971.254664 188.689433)scale(0.12 -0.12)">
      <use xlink:href="#DejaVuSans-110"/>
      <use x="63.378906" xlink:href="#DejaVuSans-49"/>
      <use x="127.001953" xlink:href="#DejaVuSans-53"/>
     </g>
    </g>
   </g>
   <g id="text_67">
    <!-- Phase X+1 -->
    <defs>
     <path d="M 46 62.703125 
L 46 35.5 
L 73.1875 35.5 
L 73.1875 27.203125 
L 46 27.203125 
L 46 0 
L 37.796875 0 
L 37.796875 27.203125 
L 10.59375 27.203125 
L 10.59375 35.5 
L 37.796875 35.5 
L 37.796875 62.703125 
z
" id="DejaVuSans-43"/>
    </defs>
    <g transform="translate(1009.586761 80.4)scale(0.12 -0.12)">
     <use xlink:href="#DejaVuSans-80"/>
     <use x="60.302734" xlink:href="#DejaVuSans-104"/>
     <use x="123.681641" xlink:href="#DejaVuSans-97"/>
     <use x="184.960938" xlink:href="#DejaVuSans-115"/>
     <use x="237.060547" xlink:href="#DejaVuSans-101"/>
     <use x="298.583984" xlink:href="#DejaVuSans-32"/>
     <use x="330.371094" xlink:href="#DejaVuSans-88"/>
     <use x="398.876953" xlink:href="#DejaVuSans-43"/>
     <use x="482.666016" xlink:href="#DejaVuSans-49"/>
    </g>
   </g>
  </g>
 </g>
 <defs>
  <clipPath id="pc0fd793f59">
   <rect height="543.6" width="507.272727" x="180" y="86.4"/>
  </clipPath>
  <clipPath id="pf92b71d271">
   <rect height="543.6" width="507.272727" x="788.727273" y="86.4"/>
  </clipPath>
 </defs>
</svg>
